#!OML:ASF I:\Random Stuff\random\construction\7_22_03\Session 2\subj1.ASF
:FULLY-SPECIFIED
:DEGREES
2479
root 3.98851 17.7497 0.326762 6.54127 111.43 -1.449
lowerback 1.76103 4.48299 5.59732
upperback 1.05316 6.41799 7.02127
thorax -0.109255 3.35493 4.0138
lowerneck -22.8717 -5.02856 1.52031
upperneck 42.9956 -9.87313 8.89741
head 22.7463 -1.04865 2.46315
rclavicle -5.1684e-014 -1.90833e-014
rhumerus 6.41943 45.8975 -72.506
rradius 57.4967
rwrist -21.6281
rhand 0.338114 23.2188
rfingers 7.12502
rthumb 25.9142 -5.03502
lclavicle -5.1684e-014 -1.90833e-014
lhumerus 25.9027 19.6549 30.3685
lradius 109.301
lwrist 87.5014
lhand -25.197 56.3357
lfingers 7.12502
lthumb 1.32127 806.311
rfemur -7.32451 12.9246 19.8114
rtibia 14.8711
rfoot -29.6751 -48.618
rtoes 30.9711
lfemur -22.3864 -20.7729 -15.1478
ltibia 17.1506
lfoot -4.40367 1.47486
ltoes -31.3453
2480
root 3.99882 17.747 0.309146 6.50477 112.15 -1.51227
lowerback 1.81455 4.60079 5.59596
upperback 1.0553 6.58908 7.07149
thorax -0.148628 3.44324 4.05879
lowerneck -23.1666 -5.12058 1.36497
upperneck 43.0423 -10.0813 9.23725
head 23.0054 -1.07685 2.6473
rclavicle -2.82274e-014 -5.725e-014
rhumerus 7.06693 46.305 -72.5005
rradius 57.3147
rwrist -21.811
rhand -0.124116 23.5654
rfingers 7.12502
rthumb 25.4715 -4.75235
lclavicle -2.82274e-014 -5.725e-014
lhumerus 26.7254 20.5104 30.0415
lradius 108.017
lwrist 88.0921
lhand -24.4952 56.3107
lfingers 7.12502
lthumb 1.99912 806.281
rfemur -7.18379 13.2634 19.8261
rtibia 14.973
rfoot -31.229 -49.1822
rtoes 31.9318
lfemur -22.4516 -20.7752 -15.3237
ltibia 17.1258
lfoot -4.38136 0.816272
ltoes -31.3091
2481
root 4.01876 17.7422 0.296343 6.12857 112.86 -1.8296
lowerback 1.92776 4.71805 5.37434
upperback 1.06543 6.75863 7.11936
thorax -0.237921 3.52904 4.21494
lowerneck -23.224 -5.13308 1.67706
upperneck 42.8846 -10.167 9.08241
head 22.8349 -1.07554 2.46016
rclavicle 6.36111e-014 -1.27222e-014
rhumerus 7.6142 46.7568 -72.5236
rradius 57.2376
rwrist -22.0936
rhand -0.607207 23.8152
rfingers 7.12502
rthumb 25.0086 -4.56781
lclavicle 6.36111e-014 -1.27222e-014
lhumerus 27.3525 21.1925 29.6356
lradius 106.865
lwrist 88.4808
lhand -23.5452 56.2087
lfingers 7.12502
lthumb 2.91654 806.168
rfemur -6.87616 13.8817 19.8088
rtibia 15.1029
rfoot -33.4198 -49.7614
rtoes 33.3729
lfemur -22.3347 -20.7514 -15.6462
ltibia 17.0691
lfoot -4.41104 0.0785068
ltoes -30.9231
2482
root 4.00999 17.7447 0.26256 6.22082 113.528 -1.99554
lowerback 1.91876 4.86599 5.55297
upperback 0.970488 6.96935 7.08355
thorax -0.313548 3.63408 4.0716
lowerneck -23.3677 -5.2781 1.52987
upperneck 42.8187 -10.4132 9.32761
head 22.9202 -1.14269 2.5634
rclavicle 1.31198e-014 -1.30403e-013
rhumerus 8.21464 47.1391 -72.48
rradius 57.2213
rwrist -22.2211
rhand -1.0968 24.1001
rfingers 7.12502
rthumb 24.5394 -4.3474
lclavicle 1.31198e-014 -1.30403e-013
lhumerus 27.933 21.7386 29.1217
lradius 105.816
lwrist 89.0142
lhand -23.0972 56.3225
lfingers 7.12502
lthumb 3.34921 806.276
rfemur -7.14187 12.9486 19.579
rtibia 15.2213
rfoot -33.2158 -49.5394
rtoes 33.1181
lfemur -22.7211 -20.7584 -15.8372
ltibia 17.001
lfoot -4.22267 -0.57989
ltoes -30.7034
2483
root 4.0023 17.7436 0.23534 6.41119 114.34 -1.95761
lowerback 2.00807 4.96009 5.72924
upperback 0.896313 7.1223 7.0995
thorax -0.426768 3.71176 3.9757
lowerneck -23.4853 -5.38566 1.3619
upperneck 42.6499 -10.626 9.65862
head 22.9219 -1.20011 2.71495
rclavicle 6.24184e-014 6.99722e-014
rhumerus 8.8815 47.3891 -72.3944
rradius 57.2432
rwrist -22.2072
rhand -1.69198 24.3794
rfingers 7.12502
rthumb 23.9688 -4.14433
lclavicle 6.24184e-014 6.99722e-014
lhumerus 28.4393 22.1478 28.5171
lradius 104.839
lwrist 89.6919
lhand -23.3107 56.5808
lfingers 7.12502
lthumb 3.14308 806.537
rfemur -7.25209 12.2474 19.5203
rtibia 15.3289
rfoot -33.694 -49.4144
rtoes 33.5366
lfemur -22.9984 -20.5129 -16.0274
ltibia 16.9099
lfoot -4.05298 -1.61629
ltoes -30.504
